<?xml version="1.0" encoding="UTF-8"?>
<!DOCTYPE svg PUBLIC "-//W3C//DTD SVG 1.1//EN" "http://www.w3.org/Graphics/SVG/1.1/DTD/svg11.dtd">
<!-- Creator: CorelDRAW 2021 (64-Bit) -->
<svg xmlns="http://www.w3.org/2000/svg" xml:space="preserve" width="1080px" height="1080px" version="1.1" style="shape-rendering:geometricPrecision; text-rendering:geometricPrecision; image-rendering:optimizeQuality; fill-rule:evenodd; clip-rule:evenodd"
viewBox="0 0 1080 1080"
 xmlns:xlink="http://www.w3.org/1999/xlink"
 xmlns:xodm="http://www.corel.com/coreldraw/odm/2003">
 <defs>
  <style type="text/css">
   <![CDATA[
    .fil1 {fill:#2BD5C8}
    .fil0 {fill:#2BD5C8}
    .fil2 {fill:black;fill-rule:nonzero}
   ]]>
  </style>
 </defs>
 <g id="Layer_x0020_1">
  <metadata id="CorelCorpID_0Corel-Layer"/>
  <path class="fil0" d="M184.68 538.43c11.02,-6.39 4.13,-26.95 25.79,-41.72 53.06,-36.19 87.36,37.81 18.43,39.35l15.43 -36.39c-41.39,3.71 -29.35,44.58 -63.46,87.55 -15.45,-14.66 -0.78,-28.95 3.83,-40.57 -42,-1.91 -40.5,52.36 19.6,56.77 40.63,2.98 80.38,-23.47 54.65,-60.28 12.09,-8.65 30.52,-13.55 25.06,-37.24 -12.31,-53.28 -149.93,-2.44 -99.33,32.53zm3.7 54.18c46.5,20.33 86.17,-44.88 38.16,-50.95 -15.36,17.71 -14.37,37.5 -30.42,47.24 -0.7,0.43 -1.88,0.94 -2.53,1.29 -0.65,0.36 -2.04,0.95 -2.59,1.23 -0.54,0.27 -1.81,0.67 -2.62,1.19z"/>
  <path class="fil1" d="M333.22 543.22c0,-62.31 -50.51,-112.82 -112.82,-112.82 -62.31,0 -112.82,50.51 -112.82,112.82 0,62.31 50.51,112.82 112.82,112.82 62.31,0 112.82,-50.51 112.82,-112.82zm-112.82 -91.36c50.45,0 91.35,40.9 91.35,91.36 0,50.45 -40.9,91.35 -91.35,91.35 -50.45,0 -91.36,-40.9 -91.36,-91.35 0,-50.46 40.91,-91.36 91.36,-91.36z"/>
  <path class="fil0" d="M200.89 379.68l35.9 12.98 -11.2 31.01c-1.72,-0.08 -3.45,-0.12 -5.19,-0.12 -13.12,0 -25.73,2.11 -37.54,6.01l18.03 -49.88zm-52.94 258.78l-11.21 31.01 -35.91 -12.98 18.04 -49.91c7.7,12.31 17.57,23.11 29.08,31.88z"/>
  <path class="fil0" d="M304.06 416.97l35.9 12.98 -18.03 49.9c-7.7,-12.3 -17.57,-23.11 -29.08,-31.87l11.21 -31.01zm-46.12 239.9l-18.03 49.89 -35.9 -12.98 11.2 -31.01c1.72,0.07 3.45,0.12 5.19,0.12 13.11,0 25.73,-2.12 37.54,-6.02z"/>
  <path class="fil2" d="M388.1 580.68l0 -102.24 30.17 0c6.85,0 13.09,1.15 18.72,3.45 5.63,2.3 10.5,5.56 14.55,9.8 4.05,4.22 7.19,9.35 9.44,15.34 2.23,5.99 3.35,12.68 3.35,20.08l0 5.06c0,7.38 -1.1,14.07 -3.33,20.03 -2.23,5.97 -5.39,11.05 -9.46,15.27 -4.1,4.22 -9.04,7.48 -14.84,9.76 -5.78,2.3 -12.2,3.45 -19.27,3.45l-29.33 0zm17.76 -87.91l0 73.72 11.57 0c4.82,0 9.06,-0.79 12.7,-2.35 3.67,-1.56 6.69,-3.83 9.11,-6.78 2.4,-2.95 4.22,-6.55 5.44,-10.81 1.22,-4.27 1.82,-9.06 1.82,-14.38l0 -5.2c0,-11.1 -2.39,-19.58 -7.24,-25.43 -4.81,-5.85 -11.81,-8.77 -20.99,-8.77l-12.41 0z"/>
  <path id="_1" class="fil2" d="M524.2 580.68l-17.06 0 0 -75.98 17.06 0 0 75.98zm-18.11 -95.7c0,-2.64 0.83,-4.8 2.49,-6.54 1.68,-1.73 4.05,-2.59 7.14,-2.59 3.09,0 5.47,0.86 7.14,2.59 1.7,1.74 2.54,3.9 2.54,6.54 0,2.56 -0.84,4.72 -2.54,6.42 -1.67,1.7 -4.05,2.57 -7.14,2.57 -3.09,0 -5.46,-0.87 -7.14,-2.57 -1.66,-1.7 -2.49,-3.86 -2.49,-6.42z"/>
  <path id="_2" class="fil2" d="M565.45 542.14c0,-5.78 0.72,-11.03 2.11,-15.82 1.42,-4.77 3.43,-8.87 6.09,-12.27 2.64,-3.43 5.82,-6.06 9.56,-7.93 3.76,-1.9 7.98,-2.83 12.66,-2.83 4.57,0 8.53,0.79 11.86,2.37 3.33,1.56 6.18,3.79 8.56,6.69l0.79 -7.65 15.36 0 0 73.87c0,5.1 -0.84,9.63 -2.52,13.61 -1.7,3.98 -4.05,7.33 -7.07,10.04 -3.02,2.74 -6.64,4.8 -10.88,6.23 -4.24,1.42 -8.86,2.14 -13.92,2.14 -2.11,0 -4.46,-0.22 -7.03,-0.67 -2.58,-0.43 -5.17,-1.18 -7.81,-2.18 -2.61,-1.01 -5.1,-2.31 -7.5,-3.89 -2.4,-1.6 -4.43,-3.54 -6.11,-5.82l8.08 -10.26c2.8,3.33 5.87,5.71 9.15,7.17 3.31,1.44 6.71,2.15 10.23,2.18 5.66,-0.03 10.12,-1.53 13.4,-4.6 3.29,-3.07 4.92,-7.58 4.92,-13.52l0 -5.13c-2.38,2.66 -5.2,4.7 -8.42,6.11 -3.23,1.39 -6.97,2.11 -11.24,2.11 -4.62,0 -8.82,-0.98 -12.53,-2.92 -3.72,-1.94 -6.9,-4.63 -9.54,-8.03 -2.66,-3.43 -4.67,-7.48 -6.09,-12.2 -1.39,-4.7 -2.11,-9.8 -2.11,-15.34l0 -1.46zm17 1.46c0,3.38 0.33,6.54 1.03,9.51 0.67,2.98 1.72,5.59 3.18,7.84 1.47,2.26 3.29,4.01 5.49,5.3 2.18,1.29 4.84,1.92 7.94,1.92 3.83,0 6.97,-0.79 9.39,-2.42 2.44,-1.61 4.41,-3.74 5.9,-6.43l0 -33.41c-1.49,-2.66 -3.48,-4.77 -5.92,-6.32 -2.47,-1.54 -5.54,-2.33 -9.26,-2.33 -3.06,0 -5.75,0.67 -8,1.97 -2.23,1.31 -4.07,3.09 -5.49,5.34 -1.44,2.25 -2.49,4.89 -3.21,7.91 -0.7,3.02 -1.05,6.23 -1.05,9.66l0 1.46z"/>
  <path id="_3" class="fil2" d="M693.77 580.68l-17.06 0 0 -75.98 17.06 0 0 75.98zm-18.12 -95.7c0,-2.64 0.84,-4.8 2.5,-6.54 1.67,-1.73 4.05,-2.59 7.14,-2.59 3.09,0 5.46,0.86 7.14,2.59 1.7,1.74 2.54,3.9 2.54,6.54 0,2.56 -0.84,4.72 -2.54,6.42 -1.68,1.7 -4.05,2.57 -7.14,2.57 -3.09,0 -5.47,-0.87 -7.14,-2.57 -1.66,-1.7 -2.5,-3.86 -2.5,-6.42z"/>
  <path id="_4" class="fil2" d="M759.4 486.25l0 18.45 13.39 0 0 12.63 -13.39 0 0 42.42c0,1.73 0.19,3.14 0.55,4.22 0.38,1.08 0.91,1.9 1.63,2.49 0.69,0.58 1.53,0.99 2.49,1.2 0.96,0.2 2.01,0.31 3.19,0.31 1.17,0 2.3,-0.09 3.4,-0.26 1.1,-0.14 1.97,-0.31 2.56,-0.45l0 13.2c-1.36,0.38 -2.94,0.74 -4.74,1.1 -1.8,0.34 -3.96,0.53 -6.5,0.53 -2.8,0 -5.41,-0.38 -7.81,-1.12 -2.42,-0.77 -4.51,-1.97 -6.25,-3.67 -1.75,-1.68 -3.14,-3.88 -4.13,-6.59 -0.98,-2.71 -1.46,-6.04 -1.46,-9.97l0 -43.41 -12.51 0 0 -12.63 12.51 0 0 -18.45 17.07 0z"/>
  <path id="_5" class="fil2" d="M842.7 568.45c2.07,0 3.98,-0.31 5.81,-0.93 1.79,-0.65 3.35,-1.53 4.69,-2.68 1.35,-1.16 2.42,-2.52 3.24,-4.1 0.81,-1.58 1.27,-3.33 1.36,-5.2l16.09 0c-0.15,3.64 -1.06,7.09 -2.71,10.33 -1.66,3.23 -3.88,6.04 -6.67,8.46 -2.8,2.39 -6.03,4.31 -9.72,5.68 -3.7,1.39 -7.65,2.08 -11.87,2.08 -5.85,0 -10.95,-1.01 -15.27,-3.02 -4.33,-2.01 -7.93,-4.77 -10.83,-8.22 -2.88,-3.47 -5.01,-7.52 -6.42,-12.15 -1.39,-4.63 -2.11,-9.54 -2.11,-14.74l0 -2.47c0,-5.2 0.72,-10.11 2.11,-14.74 1.41,-4.62 3.54,-8.7 6.42,-12.17 2.9,-3.5 6.47,-6.26 10.79,-8.27 4.31,-2.01 9.39,-3.02 15.24,-3.02 4.58,0 8.77,0.72 12.53,2.11 3.77,1.41 7,3.38 9.69,5.89 2.68,2.54 4.79,5.56 6.32,9.06 1.51,3.53 2.35,7.38 2.5,11.6l-16.09 0c-0.09,-2.01 -0.5,-3.93 -1.22,-5.75 -0.74,-1.84 -1.75,-3.43 -3.02,-4.79 -1.29,-1.34 -2.85,-2.42 -4.67,-3.21 -1.82,-0.82 -3.88,-1.2 -6.19,-1.2 -3.47,0 -6.32,0.72 -8.55,2.13 -2.25,1.44 -4.03,3.28 -5.35,5.59 -1.31,2.3 -2.2,4.91 -2.7,7.86 -0.48,2.94 -0.75,5.92 -0.75,8.91l0 2.47c0,3.09 0.27,6.09 0.75,9.01 0.5,2.93 1.39,5.54 2.7,7.84 1.32,2.3 3.07,4.15 5.3,5.53 2.23,1.42 5.11,2.11 8.6,2.11z"/>
  <path id="_6" class="fil2" d="M909.24 541.99c0,-5.53 0.81,-10.64 2.44,-15.33 1.61,-4.72 3.93,-8.8 6.95,-12.27 3.02,-3.46 6.69,-6.16 11.05,-8.15 4.36,-1.97 9.3,-2.95 14.81,-2.95 5.59,0 10.57,0.98 14.96,2.95 4.41,1.99 8.12,4.69 11.14,8.15 3,3.47 5.32,7.55 6.91,12.27 1.58,4.69 2.39,9.8 2.39,15.33l0 1.47c0,5.53 -0.81,10.66 -2.39,15.38 -1.59,4.73 -3.91,8.8 -6.91,12.25 -3.02,3.45 -6.73,6.14 -11.09,8.08 -4.39,1.94 -9.35,2.92 -14.86,2.92 -5.56,0 -10.55,-0.98 -14.93,-2.92 -4.36,-1.94 -8.06,-4.63 -11.08,-8.08 -3.02,-3.45 -5.34,-7.52 -6.95,-12.25 -1.63,-4.72 -2.44,-9.85 -2.44,-15.38l0 -1.47zm17.06 1.47c0,3.42 0.36,6.66 1.06,9.7 0.72,3.02 1.82,5.68 3.3,7.96 1.52,2.28 3.41,4.05 5.73,5.37 2.3,1.32 5.06,1.96 8.25,1.96 3.14,0 5.87,-0.64 8.17,-1.96 2.33,-1.32 4.22,-3.09 5.7,-5.37 1.47,-2.28 2.57,-4.94 3.29,-7.96 0.74,-3.04 1.1,-6.28 1.1,-9.7l0 -1.47c0,-3.37 -0.36,-6.56 -1.1,-9.58 -0.72,-3.02 -1.82,-5.66 -3.33,-7.93 -1.49,-2.28 -3.41,-4.1 -5.73,-5.45 -2.3,-1.36 -5.06,-2.03 -8.25,-2.03 -3.18,0 -5.89,0.67 -8.17,2.03 -2.28,1.35 -4.14,3.17 -5.66,5.45 -1.48,2.27 -2.58,4.91 -3.3,7.93 -0.7,3.02 -1.06,6.21 -1.06,9.58l0 1.47z"/>
 </g>
</svg>
