<?xml version="1.0" encoding="UTF-8"?>
<!DOCTYPE svg PUBLIC "-//W3C//DTD SVG 1.1//EN" "http://www.w3.org/Graphics/SVG/1.1/DTD/svg11.dtd">
<!-- Creator: CorelDRAW 2021 (64-Bit) -->
<svg xmlns="http://www.w3.org/2000/svg" xml:space="preserve" width="91.44mm" height="91.44mm" version="1.1" style="shape-rendering:geometricPrecision; text-rendering:geometricPrecision; image-rendering:optimizeQuality; fill-rule:evenodd; clip-rule:evenodd"
viewBox="0 0 9144 9144"
 xmlns:xlink="http://www.w3.org/1999/xlink"
 xmlns:xodm="http://www.corel.com/coreldraw/odm/2003">
 <defs>
  <style type="text/css">
   <![CDATA[
    .fil1 {fill:#2BD5C8}
    .fil0 {fill:#2BD5C8}
    .fil2 {fill:black;fill-rule:nonzero}
   ]]>
  </style>
 </defs>
 <g id="Layer_x0020_1">
  <metadata id="CorelCorpID_0Corel-Layer"/>
  <path class="fil0" d="M1563.61 4558.7c93.28,-54.11 34.98,-228.15 218.41,-353.24 449.19,-306.36 739.64,320.18 155.96,333.19l130.72 -308.15c-350.5,31.44 -248.55,377.49 -537.32,741.27 -130.8,-124.06 -6.66,-245.12 32.42,-343.5 -355.6,-16.17 -342.89,443.37 165.97,480.66 343.99,25.24 680.54,-198.66 462.7,-510.38 102.37,-73.18 258.41,-114.66 212.12,-315.26 -104.16,-451.13 -1269.42,-20.67 -840.98,275.41zm31.36 458.75c393.7,172.09 729.59,-379.97 323.07,-431.38 -130.04,149.91 -121.67,317.47 -257.57,399.98 -5.9,3.57 -15.91,7.92 -21.43,10.92 -5.51,3.01 -17.28,8.03 -21.88,10.35 -4.61,2.36 -15.34,5.75 -22.19,10.13z"/>
  <path class="fil1" d="M2821.27 4599.25c0,-527.56 -427.67,-955.22 -955.22,-955.22 -527.56,0 -955.22,427.66 -955.22,955.22 0,527.55 427.66,955.22 955.22,955.22 527.55,0 955.22,-427.67 955.22,-955.22zm-955.22 -773.47c427.17,0 773.46,346.29 773.46,773.47 0,427.17 -346.29,773.46 -773.46,773.46 -427.18,0 -773.47,-346.29 -773.47,-773.46 0,-427.18 346.29,-773.47 773.47,-773.47z"/>
  <path class="fil0" d="M1700.85 3214.62l304 109.88 -94.89 262.54c-14.56,-0.62 -29.2,-1 -43.91,-1 -111.04,0 -217.88,17.92 -317.86,50.93l152.66 -422.35zm-448.22 2191.02l-94.89 262.51 -304.01 -109.88 152.73 -422.53c65.17,104.17 148.72,195.67 246.17,269.9z"/>
  <path class="fil0" d="M2574.36 3530.35l304.01 109.88 -152.73 422.54c-65.16,-104.2 -148.73,-195.67 -246.17,-269.91l94.89 -262.51zm-390.44 2031.17l-152.66 422.36 -304.01 -109.88 94.9 -262.55c14.56,0.62 29.18,1.01 43.9,1.01 111.04,0 217.89,-17.93 317.87,-50.94z"/>
  <path class="fil2" d="M3285.88 4916.4l0 -865.65 255.47 0c58.04,0 110.79,9.74 158.48,29.22 47.69,19.48 88.88,47.08 123.17,82.99 34.29,35.72 60.88,79.14 79.95,129.87 18.87,50.73 28.41,107.35 28.41,170.05l0 42.81c0,62.5 -9.33,119.12 -28.21,169.64 -18.87,50.53 -45.65,93.55 -80.15,129.26 -34.7,35.72 -76.5,63.31 -125.61,82.59 -48.9,19.48 -103.28,29.22 -163.14,29.22l-248.37 0zm150.36 -744.3l0 624.17 98.01 0c40.79,0 76.7,-6.69 107.55,-19.88 31.04,-13.19 56.61,-32.47 77.1,-57.43 20.3,-24.96 35.72,-55.4 46.07,-91.52 10.35,-36.12 15.42,-76.7 15.42,-121.75l0 -44.03c0,-93.95 -20.29,-165.78 -61.28,-215.3 -40.79,-49.51 -100.04,-74.26 -177.76,-74.26l-105.11 0z"/>
  <path id="_1" class="fil2" d="M4438.26 4916.4l-144.47 0 0 -643.25 144.47 0 0 643.25zm-153.4 -810.25c0,-22.32 7.1,-40.59 21.1,-55.4 14.21,-14.61 34.29,-21.91 60.47,-21.91 26.18,0 46.27,7.3 60.47,21.91 14.41,14.81 21.51,33.08 21.51,55.4 0,21.71 -7.1,39.97 -21.51,54.38 -14.2,14.41 -34.29,21.71 -60.47,21.71 -26.18,0 -46.26,-7.3 -60.47,-21.71 -14,-14.41 -21.1,-32.67 -21.1,-54.38z"/>
  <path id="_2" class="fil2" d="M4787.5 4590.11c0,-48.91 6.09,-93.35 17.86,-133.93 11.97,-40.38 29.01,-75.08 51.54,-103.89 22.32,-29.02 49.31,-51.34 80.96,-67.17 31.86,-16.03 67.57,-23.94 107.14,-23.94 38.76,0 72.24,6.69 100.45,20.09 28.2,13.19 52.35,32.06 72.44,56.61l6.7 -64.73 130.07 0 0 625.39c0,43.22 -7.1,81.58 -21.31,115.26 -14.41,33.69 -34.29,62.09 -59.86,85.02 -25.57,23.14 -56.21,40.59 -92.13,52.76 -35.91,11.97 -75.07,18.06 -117.89,18.06 -17.86,0 -37.74,-1.82 -59.46,-5.68 -21.91,-3.65 -43.83,-9.94 -66.15,-18.47 -22.12,-8.52 -43.22,-19.48 -63.51,-32.87 -20.29,-13.59 -37.54,-30.03 -51.74,-49.31l68.38 -86.85c23.74,28.21 49.71,48.3 77.51,60.68 28.01,12.17 56.82,18.26 86.65,18.46 47.89,-0.2 85.63,-12.98 113.43,-38.96 27.8,-25.97 41.6,-64.12 41.6,-114.44l0 -43.43c-20.09,22.53 -44.03,39.77 -71.23,51.75 -27.39,11.76 -59.04,17.85 -95.16,17.85 -39.17,0 -74.68,-8.32 -106.13,-24.75 -31.45,-16.44 -58.44,-39.17 -80.76,-67.98 -22.53,-29.02 -39.57,-63.31 -51.54,-103.29 -11.77,-39.77 -17.86,-82.99 -17.86,-129.86l0 -12.38zm143.87 12.38c0,28.61 2.84,55.39 8.72,80.55 5.69,25.17 14.62,47.28 26.99,66.36 12.38,19.07 27.8,33.89 46.47,44.84 18.47,10.96 40.99,16.24 67.17,16.24 32.46,0 59.05,-6.7 79.54,-20.5 20.7,-13.59 37.34,-31.65 49.92,-54.38l0 -282.87c-12.58,-22.52 -29.42,-40.38 -50.12,-53.57 -20.9,-12.99 -46.88,-19.68 -78.33,-19.68 -25.97,0 -48.7,5.68 -67.77,16.64 -18.87,11.16 -34.5,26.17 -46.47,45.25 -12.18,19.07 -21.1,41.39 -27.19,66.96 -5.89,25.57 -8.93,52.76 -8.93,81.78l0 12.38z"/>
  <path id="_3" class="fil2" d="M5873.94 4916.4l-144.47 0 0 -643.25 144.47 0 0 643.25zm-153.4 -810.25c0,-22.32 7.1,-40.59 21.1,-55.4 14.21,-14.61 34.29,-21.91 60.47,-21.91 26.18,0 46.27,7.3 60.47,21.91 14.41,14.81 21.51,33.08 21.51,55.4 0,21.71 -7.1,39.97 -21.51,54.38 -14.2,14.41 -34.29,21.71 -60.47,21.71 -26.18,0 -46.26,-7.3 -60.47,-21.71 -14,-14.41 -21.1,-32.67 -21.1,-54.38z"/>
  <path id="_4" class="fil2" d="M6429.55 4116.9l0 156.25 113.43 0 0 106.94 -113.43 0 0 359.16c0,14.61 1.62,26.58 4.67,35.72 3.24,9.13 7.71,16.03 13.79,21.1 5.89,4.87 12.99,8.32 21.11,10.15 8.11,1.62 17.04,2.63 26.99,2.63 9.94,0 19.48,-0.81 28.81,-2.23 9.33,-1.22 16.64,-2.64 21.71,-3.85l0 111.8c-11.56,3.25 -24.96,6.29 -40.18,9.34 -15.21,2.84 -33.48,4.46 -54.99,4.46 -23.74,0 -45.86,-3.24 -66.15,-9.53 -20.49,-6.5 -38.15,-16.64 -52.96,-31.05 -14.81,-14.21 -26.58,-32.87 -34.9,-55.8 -8.32,-22.93 -12.38,-51.14 -12.38,-84.42l0 -367.48 -105.92 0 0 -106.94 105.92 0 0 -156.25 144.48 0z"/>
  <path id="_5" class="fil2" d="M7134.9 4812.91c17.46,0 33.69,-2.64 49.11,-7.91 15.22,-5.48 28.41,-12.99 39.77,-22.73 11.37,-9.74 20.5,-21.31 27.4,-34.7 6.9,-13.39 10.75,-28.2 11.56,-44.03l136.16 0c-1.22,30.84 -8.93,60.06 -22.93,87.46 -14,27.39 -32.87,51.13 -56.41,71.63 -23.74,20.29 -51.13,36.52 -82.38,48.09 -31.25,11.77 -64.74,17.65 -100.45,17.65 -49.51,0 -92.73,-8.52 -129.26,-25.57 -36.73,-17.04 -67.16,-40.38 -91.72,-69.6 -24.35,-29.42 -42.41,-63.71 -54.38,-102.88 -11.77,-39.16 -17.86,-80.76 -17.86,-124.79l0 -20.9c0,-44.03 6.09,-85.63 17.86,-124.8 11.97,-39.16 30.03,-73.66 54.38,-103.08 24.56,-29.62 54.79,-52.96 91.32,-70.01 36.52,-17.04 79.54,-25.56 129.05,-25.56 38.76,0 74.27,6.08 106.13,17.85 31.86,11.98 59.25,28.61 81.98,49.92 22.72,21.51 40.58,47.08 53.57,76.7 12.78,29.83 19.88,62.5 21.1,98.22l-136.16 0c-0.81,-17.05 -4.26,-33.28 -10.35,-48.7 -6.29,-15.63 -14.81,-29.02 -25.56,-40.59 -10.96,-11.36 -24.15,-20.49 -39.57,-27.19 -15.42,-6.9 -32.87,-10.14 -52.36,-10.14 -29.42,0 -53.57,6.08 -72.44,18.06 -19.07,12.17 -34.09,27.8 -45.25,47.28 -11.16,19.48 -18.67,41.59 -22.93,66.55 -4.06,24.96 -6.29,50.12 -6.29,75.49l0 20.9c0,26.18 2.23,51.54 6.29,76.3 4.26,24.75 11.77,46.87 22.93,66.35 11.16,19.48 25.98,35.11 44.85,46.87 18.87,11.98 43.22,17.86 72.84,17.86z"/>
  <path id="_6" class="fil2" d="M7698.22 4588.89c0,-46.87 6.9,-90.1 20.7,-129.87 13.6,-39.97 33.28,-74.47 58.85,-103.89 25.57,-29.22 56.61,-52.15 93.54,-68.99 36.93,-16.64 78.74,-24.96 125.41,-24.96 47.28,0 89.48,8.32 126.62,24.96 37.34,16.84 68.79,39.77 94.36,68.99 25.36,29.42 45.04,63.92 58.44,103.89 13.39,39.77 20.29,83 20.29,129.87l0 12.38c0,46.87 -6.9,90.3 -20.29,130.27 -13.4,39.98 -33.08,74.47 -58.44,103.69 -25.57,29.22 -57.02,51.95 -93.96,68.39 -37.13,16.43 -79.13,24.75 -125.81,24.75 -47.07,0 -89.28,-8.32 -126.41,-24.75 -36.93,-16.44 -68.18,-39.17 -93.75,-68.39 -25.57,-29.22 -45.25,-63.71 -58.85,-103.69 -13.8,-39.97 -20.7,-83.4 -20.7,-130.27l0 -12.38zm144.48 12.38c0,29.02 3.05,56.41 8.93,82.18 6.09,25.57 15.42,48.09 28,67.37 12.79,19.28 28.82,34.29 48.5,45.45 19.48,11.16 42.82,16.64 69.8,16.64 26.59,0 49.72,-5.48 69.2,-16.64 19.68,-11.16 35.71,-26.17 48.29,-45.45 12.38,-19.28 21.72,-41.8 27.8,-67.37 6.29,-25.77 9.34,-53.16 9.34,-82.18l0 -12.38c0,-28.61 -3.05,-55.6 -9.34,-81.17 -6.08,-25.57 -15.42,-47.89 -28.2,-67.16 -12.58,-19.28 -28.82,-34.7 -48.5,-46.07 -19.48,-11.56 -42.81,-17.24 -69.8,-17.24 -26.99,0 -49.92,5.68 -69.2,17.24 -19.28,11.37 -35.1,26.79 -47.89,46.07 -12.58,19.27 -21.91,41.59 -28,67.16 -5.88,25.57 -8.93,52.56 -8.93,81.17l0 12.38z"/>
 </g>
</svg>
