<?xml version="1.0" encoding="UTF-8"?>
<!DOCTYPE svg PUBLIC "-//W3C//DTD SVG 1.1//EN" "http://www.w3.org/Graphics/SVG/1.1/DTD/svg11.dtd">
<!-- Creator: CorelDRAW 2021 (64-Bit) -->
<svg xmlns="http://www.w3.org/2000/svg" xml:space="preserve" width="91.44mm" height="91.44mm" version="1.1" style="shape-rendering:geometricPrecision; text-rendering:geometricPrecision; image-rendering:optimizeQuality; fill-rule:evenodd; clip-rule:evenodd"
viewBox="0 0 9144 9144"
 xmlns:xlink="http://www.w3.org/1999/xlink"
 xmlns:xodm="http://www.corel.com/coreldraw/odm/2003">
 <defs>
  <style type="text/css">
   <![CDATA[
    .fil1 {fill:#2BD5C8}
    .fil0 {fill:#2BD5C8}
   ]]>
  </style>
 </defs>
 <g id="Layer_x0020_1">
  <metadata id="CorelCorpID_0Corel-Layer"/>
  <path class="fil0" d="M4211.38 4523.66c111.23,-64.52 41.71,-272.04 260.43,-421.19 535.6,-365.29 881.91,381.76 185.96,397.28l155.87 -367.42c-417.93,37.48 -296.37,450.1 -640.69,883.87 -155.96,-147.93 -7.94,-292.28 38.66,-409.58 -424.01,-19.29 -408.86,528.65 197.89,573.12 410.17,30.09 811.45,-236.87 551.71,-608.56 122.07,-87.27 308.12,-136.73 252.93,-375.91 -124.19,-537.91 -1513.62,-24.64 -1002.76,328.39zm37.4 546.99c469.43,205.2 869.93,-453.05 385.21,-514.36 -155.06,178.75 -145.08,378.54 -307.12,476.93 -7.03,4.26 -18.97,9.44 -25.55,13.02 -6.58,3.58 -20.6,9.58 -26.09,12.34 -5.49,2.81 -18.29,6.85 -26.45,12.07z"/>
  <path class="fil1" d="M5710.97 4572.01c0,-629.04 -509.93,-1138.98 -1138.97,-1138.98 -629.04,0 -1138.98,509.94 -1138.98,1138.98 0,629.04 509.94,1138.97 1138.98,1138.97 629.04,0 1138.97,-509.93 1138.97,-1138.97zm-1138.97 -922.26c509.35,0 922.25,412.91 922.25,922.26 0,509.35 -412.9,922.25 -922.25,922.25 -509.35,0 -922.26,-412.9 -922.26,-922.25 0,-509.35 412.91,-922.26 922.26,-922.26z"/>
  <path class="fil0" d="M4375.02 2921.01l362.48 131.03 -113.14 313.04c-17.37,-0.74 -34.81,-1.19 -52.36,-1.19 -132.4,0 -259.79,21.36 -379.01,60.72l182.03 -503.6zm-534.45 2612.52l-113.14 313 -362.49 -131.02 182.11 -503.81c77.71,124.22 177.34,233.32 293.52,321.83z"/>
  <path class="fil0" d="M5416.57 3297.48l362.49 131.03 -182.11 503.81c-77.7,-124.24 -177.35,-233.31 -293.52,-321.83l113.14 -313.01zm-465.55 2421.91l-182.03 503.61 -362.49 -131.02 113.15 -313.05c17.37,0.74 34.8,1.2 52.35,1.2 132.41,0 259.81,-21.38 379.02,-60.74z"/>
 </g>
</svg>
