<?xml version="1.0" encoding="UTF-8"?>
<!DOCTYPE svg PUBLIC "-//W3C//DTD SVG 1.1//EN" "http://www.w3.org/Graphics/SVG/1.1/DTD/svg11.dtd">
<!-- Creator: CorelDRAW 2021 (64-Bit) -->
<svg xmlns="http://www.w3.org/2000/svg" xml:space="preserve" width="91.44mm" height="91.44mm" version="1.1" style="shape-rendering:geometricPrecision; text-rendering:geometricPrecision; image-rendering:optimizeQuality; fill-rule:evenodd; clip-rule:evenodd"
viewBox="0 0 9144 9144"
 xmlns:xlink="http://www.w3.org/1999/xlink"
 xmlns:xodm="http://www.corel.com/coreldraw/odm/2003">
 <defs>
  <style type="text/css">
   <![CDATA[
    .fil1 {fill:#2BD5C8}
    .fil0 {fill:#2BD5C8}
   ]]>
  </style>
 </defs>
 <g id="Layer_x0020_1">
  <metadata id="CorelCorpID_0Corel-Layer"/>
  <path class="fil0" d="M4531.53 4568.03c12.48,-5.29 4.68,-22.32 29.23,-34.56 60.1,-29.97 98.97,31.33 20.87,32.6l17.49 -30.15c-46.9,3.08 -33.26,36.94 -71.9,72.53 -17.51,-12.14 -0.9,-23.98 4.33,-33.61 -47.58,-1.58 -45.88,43.38 22.21,47.03 46.04,2.46 91.07,-19.44 61.92,-49.94 13.7,-7.16 34.58,-11.22 28.39,-30.84 -13.94,-44.14 -169.87,-2.02 -112.54,26.94zm4.2 44.88c52.68,16.84 97.63,-37.17 43.23,-42.2 -17.4,14.67 -16.28,31.06 -34.47,39.13 -0.79,0.35 -2.13,0.78 -2.87,1.07 -0.74,0.3 -2.31,0.79 -2.93,1.01 -0.61,0.23 -2.05,0.57 -2.96,0.99z"/>
  <path class="fil1" d="M4699.82 4572c0,-51.61 -57.22,-93.45 -127.82,-93.45 -70.6,0 -127.82,41.84 -127.82,93.45 0,51.61 57.22,93.45 127.82,93.45 70.6,0 127.82,-41.84 127.82,-93.45zm-127.82 -75.67c57.16,0 103.5,33.88 103.5,75.67 0,41.79 -46.34,75.67 -103.5,75.67 -57.16,0 -103.5,-33.88 -103.5,-75.67 0,-41.79 46.34,-75.67 103.5,-75.67z"/>
  <path class="fil0" d="M4549.89 4436.54l40.68 10.75 -12.69 25.68c-1.95,-0.06 -3.91,-0.1 -5.88,-0.1 -14.86,0 -29.16,1.76 -42.54,4.99l20.43 -41.32zm-59.98 214.35l-12.69 25.69 -40.68 -10.75 20.43 -41.34c8.72,10.19 19.9,19.14 32.94,26.4z"/>
  <path class="fil0" d="M4666.78 4467.43l40.68 10.75 -20.43 41.33c-8.72,-10.19 -19.91,-19.14 -32.94,-26.4l12.69 -25.68zm-52.24 198.71l-20.43 41.33 -40.68 -10.75 12.69 -25.69c1.95,0.06 3.91,0.1 5.88,0.1 14.86,0 29.16,-1.76 42.54,-4.99z"/>
 </g>
</svg>
